<svg xmlns="http://www.w3.org/2000/svg" width="79" height="22" viewBox="0 0 79 22">
    <g fill="#ADB5BD" fill-rule="nonzero" opacity=".4">
        <path d="M.393 16.932V5.54h2.082v11.413H.393zM13.907 15.262c0 2.633-.55 4.224-1.63 5.226-1.14 1.02-2.73 1.375-4.164 1.375-1.375 0-2.888-.334-3.792-.943l.511-1.611c.747.491 1.925.923 3.34.923 2.12 0 3.673-1.1 3.673-4.007v-1.257h-.04c-.609 1.06-1.866 1.905-3.634 1.905-2.828 0-4.851-2.396-4.851-5.578 0-3.87 2.514-6.03 5.166-6.03 1.984 0 3.044 1.02 3.555 1.964h.04l.078-1.69h1.846c-.078.806-.098 1.729-.098 3.104v6.62zm-2.082-5.244c0-.334-.02-.629-.118-.923-.373-1.218-1.375-2.22-2.907-2.22-1.984 0-3.398 1.67-3.398 4.341 0 2.22 1.159 4.105 3.378 4.105 1.297 0 2.456-.805 2.868-2.14.118-.335.157-.727.157-1.1l.02-2.063zM23.591 14.202c0 .982.04 1.964.157 2.73h-1.866l-.196-1.434h-.079c-.609.904-1.866 1.69-3.496 1.69-2.318 0-3.497-1.63-3.497-3.28 0-2.75 2.456-4.263 6.856-4.244V9.43c0-.943-.256-2.672-2.593-2.633-1.08 0-2.2.315-2.986.845l-.471-1.395c.943-.589 2.337-.982 3.771-.982 3.516 0 4.36 2.377 4.36 4.675v4.263h.04zm-2.023-3.084c-2.26-.04-4.832.353-4.832 2.573 0 1.375.903 1.984 1.925 1.984 1.512 0 2.475-.943 2.809-1.905.078-.216.098-.452.098-.668v-1.984zM27.343 5.421l.943 4.734c.216 1.179.451 2.456.628 3.772h.079c.216-1.297.57-2.613.825-3.752l1.218-4.754h2.828l1.16 4.597c.333 1.316.628 2.593.844 3.909h.04c.156-1.297.392-2.613.687-3.929l.962-4.577h3.516l-3.535 11.53h-3.34l-1.08-4.026c-.314-1.14-.53-2.16-.747-3.595h-.039a33.43 33.43 0 0 1-.727 3.575l-1.159 4.047h-3.378l-3.379-11.53h3.654zM45.984 17.207c-3.379 0-5.971-2.22-5.971-5.932 0-3.713 2.455-6.109 6.167-6.109 3.516 0 5.874 2.436 5.874 5.913 0 4.203-2.986 6.128-6.05 6.128h-.02zm.078-2.573c1.415 0 2.28-1.395 2.28-3.457 0-1.69-.669-3.438-2.28-3.438-1.689 0-2.357 1.749-2.357 3.457 0 1.965.825 3.438 2.338 3.438h.02zM75.546 9.92c-1.414-.491-1.866-.786-1.866-1.336 0-.57.491-.923 1.375-.923.963 0 1.984.373 2.495.628l.609-2.455c-.707-.354-1.886-.688-3.241-.688-2.848 0-4.695 1.63-4.695 3.792-.02 1.335.904 2.67 3.3 3.437 1.316.452 1.67.727 1.67 1.336 0 .589-.452.943-1.532.943-1.061 0-2.436-.452-3.084-.845l-.373 1.532-3.615-5.264 4.125-4.675h-4.321l-2.338 3.496c-.275.432-.57.904-.825 1.395h-.039V.216h-3.575v5.029c-.255-.04-.432-.079-.746-.079-1.14 0-2.515.707-3.104 2.396h-.098l-.138-2.14h-3.084c.079.982.099 2.101.099 3.79l-.02 7.72H56.1v-5.814c0-.314.02-.57.079-.806.235-1.139 1.139-1.807 2.455-1.807.393 0 .687.04.982.099v8.348h3.575v-3.595l.904-1.159 2.809 4.734h4.4l-.04-.059a9.115 9.115 0 0 0 2.416.314c3.3 0 4.97-1.57 4.97-3.751-.02-1.65-.904-2.79-3.104-3.516zM1.395 2.73C.609 2.73.098 2.121.098 1.395.098.668.648.079 1.434.079c.805 0 1.316.589 1.316 1.316 0 .726-.53 1.335-1.355 1.335zM10.077 2.73c-.786 0-1.297-.609-1.297-1.335 0-.727.55-1.316 1.336-1.316.805 0 1.316.589 1.316 1.316 0 .726-.51 1.335-1.355 1.335zM18.779 2.73c-.786 0-1.297-.609-1.297-1.335 0-.727.55-1.316 1.336-1.316.805 0 1.316.589 1.316 1.316 0 .726-.51 1.335-1.355 1.335z"/>
    </g>
</svg>
