<svg xmlns="http://www.w3.org/2000/svg" width="143" height="40" viewBox="0 0 143 40">
    <g fill="none" fill-rule="nonzero">
        <path fill="#FFF" d="M.714 30.786V10.07H4.5v20.75H.714zM25.286 27.75c0 4.786-1 7.679-2.965 9.5-2.071 1.857-4.964 2.5-7.571 2.5-2.5 0-5.25-.607-6.893-1.714l.929-2.929c1.357.893 3.5 1.679 6.071 1.679 3.857 0 6.679-2 6.679-7.286v-2.286h-.072c-1.107 1.929-3.393 3.465-6.607 3.465-5.143 0-8.821-4.358-8.821-10.143 0-7.036 4.571-10.965 9.393-10.965 3.607 0 5.535 1.858 6.464 3.572h.071l.143-3.072h3.357c-.143 1.465-.178 3.143-.178 5.643V27.75zM21.5 18.214c0-.607-.036-1.143-.214-1.678-.679-2.215-2.5-4.036-5.286-4.036-3.607 0-6.179 3.036-6.179 7.893 0 4.036 2.108 7.464 6.143 7.464 2.357 0 4.465-1.464 5.215-3.893.214-.607.285-1.321.285-2v-3.75h.036zM42.893 25.821c0 1.786.071 3.572.286 4.965h-3.393l-.357-2.607h-.143c-1.107 1.642-3.393 3.071-6.357 3.071-4.215 0-6.358-2.964-6.358-5.964 0-5 4.465-7.75 12.465-7.715v-.428c0-1.714-.465-4.857-4.715-4.786-1.964 0-4 .572-5.428 1.536l-.857-2.536c1.714-1.071 4.25-1.786 6.857-1.786 6.393 0 7.928 4.322 7.928 8.5v7.75h.072zm-3.679-5.607c-4.107-.071-8.785.643-8.785 4.679 0 2.5 1.642 3.607 3.5 3.607 2.75 0 4.5-1.714 5.107-3.464.143-.393.178-.822.178-1.215v-3.607zM49.714 9.857l1.715 8.607c.392 2.143.821 4.465 1.142 6.857h.143c.393-2.357 1.036-4.75 1.5-6.821l2.215-8.643h5.142l2.108 8.357c.607 2.393 1.142 4.715 1.535 7.107h.072c.285-2.357.714-4.75 1.25-7.142l1.75-8.322h6.393L68.25 30.821h-6.071L60.214 23.5c-.571-2.071-.964-3.929-1.357-6.536h-.071a60.782 60.782 0 0 1-1.322 6.5l-2.107 7.357h-6.143L43.071 9.857h6.643zM83.607 31.286c-6.143 0-10.857-4.036-10.857-10.786S77.214 9.393 83.964 9.393c6.393 0 10.679 4.428 10.679 10.75 0 7.643-5.429 11.143-11 11.143h-.036zm.143-4.679c2.571 0 4.143-2.536 4.143-6.286 0-3.071-1.214-6.25-4.143-6.25-3.071 0-4.286 3.179-4.286 6.286 0 3.572 1.5 6.25 4.25 6.25h.036zM137.357 18.036c-2.571-.893-3.393-1.429-3.393-2.429 0-1.036.893-1.678 2.5-1.678 1.75 0 3.607.678 4.536 1.142l1.107-4.464c-1.286-.643-3.428-1.25-5.893-1.25-5.178 0-8.535 2.964-8.535 6.893-.036 2.429 1.642 4.857 6 6.25 2.392.821 3.035 1.321 3.035 2.429 0 1.071-.821 1.714-2.785 1.714-1.929 0-4.429-.822-5.608-1.536l-.678 2.786-6.572-9.572 7.5-8.5h-7.857l-4.25 6.358c-.5.785-1.035 1.642-1.5 2.535h-.071V.393h-6.5v9.143c-.464-.072-.786-.143-1.357-.143-2.072 0-4.572 1.286-5.643 4.357h-.179l-.25-3.893h-5.607c.143 1.786.179 3.822.179 6.893L95.5 30.786h6.5V20.214c0-.571.036-1.035.143-1.464.428-2.071 2.071-3.286 4.464-3.286.714 0 1.25.072 1.786.179V30.82h6.5v-6.535l1.643-2.107 5.107 8.607h8l-.072-.107c1.286.357 2.786.571 4.393.571 6 0 9.036-2.857 9.036-6.821-.036-3-1.643-5.072-5.643-6.393z"/>
        <path fill="#E03131" d="M2.536 4.964C1.107 4.964.179 3.857.179 2.536c0-1.322 1-2.393 2.428-2.393C4.071.143 5 1.214 5 2.536c0 1.321-.964 2.428-2.464 2.428z"/>
        <path fill="#FCC419" d="M18.321 4.964c-1.428 0-2.357-1.107-2.357-2.428 0-1.322 1-2.393 2.429-2.393 1.464 0 2.393 1.071 2.393 2.393 0 1.321-.929 2.428-2.429 2.428h-.036z"/>
        <path fill="#329AF0" d="M34.143 4.964c-1.429 0-2.357-1.107-2.357-2.428 0-1.322 1-2.393 2.428-2.393 1.465 0 2.393 1.071 2.393 2.393 0 1.321-.928 2.428-2.428 2.428h-.036z"/>
    </g>
</svg>
